<?xml version="1.0" encoding="UTF-8"?>
<!DOCTYPE svg PUBLIC "-//W3C//DTD SVG 1.1//EN" "http://www.w3.org/Graphics/SVG/1.1/DTD/svg11.dtd">
<svg xmlns="http://www.w3.org/2000/svg" version="1.1" width="480px" height="480px" style="shape-rendering:geometricPrecision; text-rendering:geometricPrecision; image-rendering:optimizeQuality; fill-rule:evenodd; clip-rule:evenodd" xmlns:xlink="http://www.w3.org/1999/xlink">
<g><path style="opacity:1" fill="#fefefe" d="M -0.5,-0.5 C 159.5,-0.5 319.5,-0.5 479.5,-0.5C 479.5,159.5 479.5,319.5 479.5,479.5C 319.5,479.5 159.5,479.5 -0.5,479.5C -0.5,319.5 -0.5,159.5 -0.5,-0.5 Z"/></g>
<g><path style="opacity:1" fill="#02822c" d="M 290.5,94.5 C 273.485,123.869 256.485,153.202 239.5,182.5C 222.476,153.152 205.476,123.818 188.5,94.5C 191.645,91.9335 195.312,90.4335 199.5,90C 226.5,89.3333 253.5,89.3333 280.5,90C 284.229,90.8445 287.563,92.3445 290.5,94.5 Z"/></g>
<g><path style="opacity:1" fill="#02ac47" d="M 188.5,94.5 C 205.476,123.818 222.476,153.152 239.5,182.5C 239.5,182.833 239.5,183.167 239.5,183.5C 219.501,218.163 199.501,252.83 179.5,287.5C 145.167,287.5 110.833,287.5 76.5,287.5C 76.5,285.833 76.5,284.167 76.5,282.5C 78.5054,275.488 81.3388,268.822 85,262.5C 115.7,210.112 146.034,157.445 176,104.5C 179.484,100.169 183.651,96.8356 188.5,94.5 Z"/></g>
<g><path style="opacity:1" fill="#feb902" d="M 290.5,94.5 C 296.052,97.2126 300.552,101.213 304,106.5C 333.081,157.663 362.414,208.663 392,259.5C 394.745,265.325 397.745,270.992 401,276.5C 401.834,280.002 402.667,283.502 403.5,287C 403.43,287.765 403.097,288.265 402.5,288.5C 368.5,288.5 334.5,288.5 300.5,288.5C 300.167,288.5 299.833,288.5 299.5,288.5C 297.421,284.672 295.588,280.672 294,276.5C 275.808,245.44 257.642,214.44 239.5,183.5C 239.5,183.167 239.5,182.833 239.5,182.5C 256.485,153.202 273.485,123.869 290.5,94.5 Z"/></g>
<g><path style="opacity:1" fill="#fdfefd" d="M 239.5,183.5 C 257.642,214.44 275.808,245.44 294,276.5C 295.588,280.672 297.421,284.672 299.5,288.5C 259.5,288.5 219.5,288.5 179.5,288.5C 179.5,288.167 179.5,287.833 179.5,287.5C 199.501,252.83 219.501,218.163 239.5,183.5 Z"/></g>
<g><path style="opacity:1" fill="#12a27d" d="M 76.5,282.5 C 76.5,284.167 76.5,285.833 76.5,287.5C 110.833,287.5 145.167,287.5 179.5,287.5C 179.5,287.833 179.5,288.167 179.5,288.5C 179.167,288.5 178.833,288.5 178.5,288.5C 144.5,288.5 110.5,288.5 76.5,288.5C 75.1667,286.5 75.1667,284.5 76.5,282.5 Z"/></g>
<g><path style="opacity:1" fill="#0166da" d="M 76.5,288.5 C 110.5,288.5 144.5,288.5 178.5,288.5C 162.098,317.636 145.431,346.636 128.5,375.5C 128.043,376.298 127.376,376.631 126.5,376.5C 123.269,374.78 120.436,372.447 118,369.5C 108.081,353.332 98.4147,336.998 89,320.5C 85.3333,313.5 81.6667,306.5 78,299.5C 76.8924,295.914 76.3924,292.247 76.5,288.5 Z"/></g>
<g><path style="opacity:1" fill="#2683fb" d="M 178.5,288.5 C 178.833,288.5 179.167,288.5 179.5,288.5C 219.5,288.5 259.5,288.5 299.5,288.5C 299.833,288.5 300.167,288.5 300.5,288.5C 317.5,317.833 334.5,347.167 351.5,376.5C 350.942,377.79 349.942,378.623 348.5,379C 346.122,379.511 343.788,380.178 341.5,381C 273.167,381.667 204.833,381.667 136.5,381C 132.475,380.817 129.142,379.317 126.5,376.5C 127.376,376.631 128.043,376.298 128.5,375.5C 145.431,346.636 162.098,317.636 178.5,288.5 Z"/></g>
<g><path style="opacity:1" fill="#e94234" d="M 300.5,288.5 C 334.5,288.5 368.5,288.5 402.5,288.5C 402.737,292.273 402.237,295.94 401,299.5C 393.702,313.773 386.035,327.773 378,341.5C 372.333,350.833 366.667,360.167 361,369.5C 358.499,372.848 355.332,375.182 351.5,376.5C 334.5,347.167 317.5,317.833 300.5,288.5 Z"/></g>
</svg>
